<?xml version="1.0" encoding="UTF-8" standalone="no"?>
<svg width="14px" height="14px" viewBox="0 0 14 14" version="1.1" xmlns="http://www.w3.org/2000/svg" xmlns:xlink="http://www.w3.org/1999/xlink">
    <!-- Generator: Sketch 3.6 (26304) - http://www.bohemiancoding.com/sketch -->
    <title>Shape</title>
    <desc>Created with Sketch.</desc>
    <defs></defs>
    <g id="UI" stroke="none" stroke-width="1" fill="none" fill-rule="evenodd" stroke-linecap="round" stroke-linejoin="round">
        <g id="Desktop-HD-Copy" transform="translate(-1184.000000, -193.000000)" stroke="#343434" fill="#FFFFFF">
            <g id="plus" transform="translate(1185.000000, 194.000000)">
                <g id="Plus">
                    <path d="M12,6 C12,6.553 11.952,7 11.399,7 L7,7 L7,11.399 C7,11.951 6.553,12 6,12 C5.447,12 5,11.951 5,11.399 L5,7 L0.601,7 C0.049,7 0,6.553 0,6 C0,5.447 0.049,5 0.601,5 L5,5 L5,0.601 C5,0.048 5.447,0 6,0 C6.553,0 7,0.048 7,0.601 L7,5 L11.399,5 C11.952,5 12,5.447 12,6 L12,6 Z" id="Shape"></path>
                </g>
            </g>
        </g>
    </g>
</svg>