<?xml version="1.0" encoding="UTF-8" standalone="no"?>
<svg width="15px" height="13px" viewBox="0 0 15 13" version="1.1" xmlns="http://www.w3.org/2000/svg" xmlns:xlink="http://www.w3.org/1999/xlink" xmlns:sketch="http://www.bohemiancoding.com/sketch/ns">
    <!-- Generator: Sketch 3.5.2 (25235) - http://www.bohemiancoding.com/sketch -->
    <title>albums</title>
    <desc>Created with Sketch.</desc>
    <defs></defs>
    <g id="UI" stroke="none" stroke-width="1" fill="none" fill-rule="evenodd" sketch:type="MSPage">
        <g id="Desktop-HD-Copy-3" sketch:type="MSArtboardGroup" transform="translate(-223.000000, -318.000000)" fill="#222222">
            <g id="Group-5" sketch:type="MSLayerGroup" transform="translate(223.000000, 234.000000)">
                <g id="Group-3-Copy" transform="translate(0.000000, 84.000000)" sketch:type="MSShapeGroup">
                    <path d="M10.5460852,0 L4.45235141,0 C4.45235141,0 3.6901564,0 3.6901564,0.765256036 L11.3082802,0.765256036 C11.3082802,0 10.5460852,0 10.5460852,0 L10.5460852,0 Z M12.831905,2.29576811 C12.831905,1.53051207 12.0704753,1.53051207 12.0704753,1.53051207 L2.92872664,1.53051207 C2.92872664,1.53051207 2.16729689,1.53051207 2.16729689,2.29576811 L2.16729689,3.06102415 L12.831905,3.06102415 L12.831905,2.29576811 L12.831905,2.29576811 Z M14.3547645,3.06102415 L13.904794,2.60799257 L13.904794,3.82628018 L1.09440792,3.82628018 L1.09440792,2.60799257 C1.09440792,2.60799257 1.09440792,2.60799257 0.643672119,3.06102415 C0.192936313,3.51405572 -0.130001734,3.63496617 0.0513639467,4.59153622 C0.231964371,5.54504524 1.10665202,10.771744 1.23674555,11.4788405 C1.37908317,12.2548102 2.16806214,12.2440966 2.16806214,12.2440966 L12.8326703,12.2440966 C12.8326703,12.2440966 13.620884,12.2548102 13.7639869,11.4788405 C13.8940804,10.771744 14.7680028,5.54504524 14.9493685,4.59153622 C15.1292036,3.63496617 14.8062656,3.51405572 14.3547645,3.06102415 L14.3547645,3.06102415 Z M10.5606251,7.6502646 C10.5606251,8.07421644 10.2170251,8.4178164 9.79307329,8.4178164 L5.20612861,8.4178164 C4.78217676,8.4178164 4.4385768,8.07421644 4.4385768,7.6502646 L4.4385768,6.12204829 L5.20383284,6.12204829 L5.20383284,7.65256036 L9.79536906,7.65256036 L9.79536906,6.12204829 L10.5606251,6.12204829 L10.5606251,7.6502646 L10.5606251,7.6502646 Z" id="albums"></path>
                </g>
            </g>
        </g>
    </g>
</svg>