<?xml version="1.0" encoding="UTF-8" standalone="no"?>
<svg width="15px" height="15px" viewBox="0 0 15 15" version="1.1" xmlns="http://www.w3.org/2000/svg" xmlns:xlink="http://www.w3.org/1999/xlink" xmlns:sketch="http://www.bohemiancoding.com/sketch/ns">
    <!-- Generator: Sketch 3.5.2 (25235) - http://www.bohemiancoding.com/sketch -->
    <title>Images</title>
    <desc>Created with Sketch.</desc>
    <defs></defs>
    <g id="UI" stroke="none" stroke-width="1" fill="none" fill-rule="evenodd" sketch:type="MSPage">
        <g id="Desktop-HD-Copy" sketch:type="MSArtboardGroup" transform="translate(-223.000000, -264.000000)" fill="#FFFFFF">
            <g id="Group-5" sketch:type="MSLayerGroup" transform="translate(223.000000, 238.000000)">
                <g id="Group-4" transform="translate(0.000000, 26.000000)" sketch:type="MSShapeGroup">
                    <path d="M12.8437584,4.62861823 L11.3092644,0.402384675 C11.1960148,0.0903858892 10.8630161,-0.0753634659 10.5675172,0.033386111 L0.36905693,3.75562163 C0.0735580801,3.86362121 -0.0756913392,4.20336989 0.0383082172,4.51536867 L1.65530193,8.97110133 L1.65530193,6.58386062 C1.65530193,5.50536482 2.51629858,4.62861823 3.57529445,4.62861823 L6.27003397,4.62861823 L9.48377146,2.37262701 L11.3430142,4.62861823 L12.8437584,4.62861823 L12.8437584,4.62861823 Z M14.4285022,6.00111289 L3.57529445,6.00111289 C3.26029568,6.00111289 3.00379668,6.25161192 3.00379668,6.58386062 L3.00379668,13.6488331 C3.00454668,13.9818318 3.26104568,14.2510808 3.57529445,14.2510808 L14.4285022,14.2510808 C14.743501,14.2510808 15,13.9818318 15,13.6488331 L15,6.58386062 C15,6.25161192 14.743501,6.00111289 14.4285022,6.00111289 L14.4285022,6.00111289 Z M13.5000058,12.7510866 L4.50004086,12.7510866 L4.50004086,11.2510925 L5.98803507,8.23760419 L8.06402699,10.8145942 L10.0125194,8.81810193 L12.5160097,7.91435545 L13.5000058,10.5010954 L13.5000058,12.7510866 L13.5000058,12.7510866 Z" id="Images"></path>
                </g>
            </g>
        </g>
    </g>
</svg>