<?xml version="1.0" encoding="UTF-8" standalone="no"?>
<svg width="196px" height="161px" viewBox="0 0 196 161" version="1.1" xmlns="http://www.w3.org/2000/svg" xmlns:xlink="http://www.w3.org/1999/xlink">
    <!-- Generator: Sketch 3.6 (26304) - http://www.bohemiancoding.com/sketch -->
    <title>favorites-empty-state</title>
    <desc>Created with Sketch.</desc>
    <defs>
        <filter x="-50%" y="-50%" width="200%" height="200%" filterUnits="objectBoundingBox" id="filter-1">
            <feOffset dx="0" dy="0" in="SourceAlpha" result="shadowOffsetOuter1"></feOffset>
            <feGaussianBlur stdDeviation="2.5" in="shadowOffsetOuter1" result="shadowBlurOuter1"></feGaussianBlur>
            <feColorMatrix values="0 0 0 0 0   0 0 0 0 0   0 0 0 0 0  0 0 0 0.28 0" in="shadowBlurOuter1" type="matrix" result="shadowMatrixOuter1"></feColorMatrix>
            <feMerge>
                <feMergeNode in="shadowMatrixOuter1"></feMergeNode>
                <feMergeNode in="SourceGraphic"></feMergeNode>
            </feMerge>
        </filter>
    </defs>
    <g id="UI" stroke="none" stroke-width="1" fill="none" fill-rule="evenodd">
        <g id="Desktop-HD-Copy-6" transform="translate(-697.000000, -365.000000)">
            <g id="Group-8" transform="translate(638.000000, 370.000000)">
                <g id="favorites-empty-state" transform="translate(64.000000, 0.000000)">
                    <path d="M170.75299,12.440911 C152.672849,-4.14697034 123.357499,-4.14697034 105.277357,12.440911 L93.0040551,23.7085592 L80.7199395,12.440911 C62.6397977,-4.14697034 33.3352615,-4.14697034 15.2551197,12.440911 C-5.0850399,31.1157944 -5.0850399,61.3178495 15.2551197,79.9819194 L93.0040551,151.340087 L170.75299,79.9819194 C191.082337,61.3178495 191.082337,31.1049809 170.75299,12.440911 L170.75299,12.440911 Z" id="Favorites-Copy" fill="#D0021B" filter="url(#filter-1)"></path>
                    <path d="M69,98.8554688 C69,98.8554688 75.8730469,84 93.2148438,84 C110.556641,84 117.429688,98.8554688 117.429688,98.8554688" id="Path-330" stroke="#36050B" stroke-width="5" stroke-linecap="round" stroke-linejoin="round"></path>
                    <g id="Group-2" transform="translate(68.000000, 47.000000)" fill="#35050B">
                        <ellipse id="Oval-41" cx="6" cy="11" rx="6" ry="11"></ellipse>
                        <ellipse id="Oval-41" cx="43" cy="11" rx="6" ry="11"></ellipse>
                    </g>
                </g>
            </g>
        </g>
    </g>
</svg>