<?xml version="1.0" encoding="UTF-8" standalone="no"?>
<svg width="16px" height="14px" viewBox="0 0 16 14" version="1.1" xmlns="http://www.w3.org/2000/svg" xmlns:xlink="http://www.w3.org/1999/xlink" xmlns:sketch="http://www.bohemiancoding.com/sketch/ns">
    <!-- Generator: Sketch 3.5.2 (25235) - http://www.bohemiancoding.com/sketch -->
    <title>filter</title>
    <desc>Created with Sketch.</desc>
    <defs></defs>
    <g id="UI" stroke="none" stroke-width="1" fill="none" fill-rule="evenodd" sketch:type="MSPage">
        <g id="Desktop-HD-Copy" sketch:type="MSArtboardGroup" transform="translate(-222.000000, -321.000000)" fill="#FFFFFF">
            <g id="Group-5" sketch:type="MSLayerGroup" transform="translate(222.000000, 238.000000)">
                <g id="Group-3-Copy-2" transform="translate(0.000000, 83.000000)" sketch:type="MSShapeGroup">
                    <path d="M8.8,0.6392 C5.244,0.6392 2.3512,3.4888 2.2648,7.036 L2.2648,7.2 L0.3672,7.2 L3.2424,10.3152 L6.0376,7.2 L3.9,7.2 L3.9,7.036 C3.9856,4.3936 6.1464,2.28 8.8,2.28 C11.5088,2.28 13.7048,4.4832 13.7048,7.2 C13.7048,9.9168 11.5088,12.12 8.8,12.12 C7.7144,12.12 6.7112,11.764 5.8984,11.1656 L4.7736,12.3688 C5.884,13.2392 7.2816,13.7592 8.8,13.7592 C12.412,13.7592 15.3392,10.8232 15.3392,7.2 C15.3392,3.5768 12.412,0.6392 8.8,0.6392 L8.8,0.6392 Z M8,3.2 L8,7.2 C8,7.304 8.0216,7.408 8.0616,7.5056 C8.1024,7.6032 8.1608,7.692 8.2344,7.7656 L10.7944,10.3256 C11.0208,10.1792 11.2344,10.0144 11.424,9.8232 L9.6,8 L9.6,3.2 L8,3.2 L8,3.2 Z" id="filter"></path>
                </g>
            </g>
        </g>
    </g>
</svg>