<?xml version="1.0" encoding="UTF-8" standalone="no"?>
<svg width="10px" height="10px" viewBox="0 0 10 10" version="1.1" xmlns="http://www.w3.org/2000/svg" xmlns:xlink="http://www.w3.org/1999/xlink" xmlns:sketch="http://www.bohemiancoding.com/sketch/ns">
    <!-- Generator: Sketch 3.5.2 (25235) - http://www.bohemiancoding.com/sketch -->
    <title>loading</title>
    <desc>Created with Sketch.</desc>
    <defs></defs>
    <g id="UI" stroke="none" stroke-width="1" fill="none" fill-rule="evenodd" sketch:type="MSPage">
        <g id="Desktop-HD-Copy" sketch:type="MSArtboardGroup" transform="translate(-224.000000, -322.000000)" fill="#FFFFFF">
            <path d="M226.617006,329.395555 C225.375713,328.060974 225.397664,325.969106 226.687247,324.670195 C227.215152,324.138447 227.87476,323.821265 228.560709,323.71755 L228.522844,322.577778 C227.559773,322.694663 226.628529,323.124341 225.890449,323.867909 C224.162408,325.607474 224.141555,328.41657 225.822952,330.195645 L224.867563,331.157071 L227.891223,331.322247 L227.882992,328.120789 L226.617006,329.395555 L226.617006,329.395555 Z M230.264604,322.832951 L230.272836,326.034409 L231.538822,324.760191 C232.780114,326.09587 232.758164,328.187738 231.468581,329.485552 C230.941224,330.017299 230.281067,330.334481 229.595119,330.438197 L229.632983,331.57742 C230.596055,331.460534 231.527298,331.030856 232.265927,330.287837 C233.993419,328.547174 234.014272,325.738079 232.332876,323.960101 L233.288264,322.997578 L230.264604,322.832951 L230.264604,322.832951 Z" id="loading" sketch:type="MSShapeGroup"></path>
        </g>
    </g>
</svg>