<?xml version="1.0" encoding="UTF-8" standalone="no"?>
<svg width="11px" height="15px" viewBox="0 0 11 15" version="1.1" xmlns="http://www.w3.org/2000/svg" xmlns:xlink="http://www.w3.org/1999/xlink">
    <!-- Generator: Sketch 3.6 (26304) - http://www.bohemiancoding.com/sketch -->
    <title>share-action</title>
    <desc>Created with Sketch.</desc>
    <defs></defs>
    <g id="UI" stroke="none" stroke-width="1" fill="none" fill-rule="evenodd">
        <g id="Desktop-HD-Copy" transform="translate(-1136.000000, -192.000000)" fill="#FFFFFF">
            <g id="ui" transform="translate(208.000000, 179.000000)">
                <g id="Share-Button" transform="translate(913.000000, 10.000000)">
                    <g id="share-action" transform="translate(15.000000, 4.000000)">
                        <path d="M7.7,4 L10.0044225,4 C10.555163,4 11,4.44565467 11,4.99539757 L11,13.0046024 C11,13.5443356 10.5542648,14 10.0044225,14 L0.995577499,14 C0.444836974,14 0,13.5543453 0,13.0046024 L0,4.99539757 C0,4.4556644 0.445735229,4 0.995577499,4 L3.3,4 L3.3,5 L7.7,5 L7.7,4 Z M1.59833994,5 C1.32311439,5 1.1,5.23079681 1.1,5.50043583 L1.1,12.4995642 C1.1,12.7759472 1.3175293,13 1.59833994,13 L9.40166006,13 C9.67688561,13 9.9,12.7692032 9.9,12.4995642 L9.9,5.50043583 C9.9,5.22405275 9.6824707,5 9.40166006,5 L1.59833994,5 Z" id="Box"></path>
                        <g id="Arrow" transform="translate(2.000000, 0.000000)">
                            <polygon id="Triangle-1" stroke="#343434" points="3.5 0 7 3 0 3 "></polygon>
                            <rect id="Line" x="3" y="1" width="1" height="9"></rect>
                        </g>
                    </g>
                </g>
            </g>
        </g>
    </g>
</svg>