<?xml version="1.0" encoding="UTF-8" standalone="no"?>
<svg width="12px" height="15px" viewBox="0 0 12 15" version="1.1" xmlns="http://www.w3.org/2000/svg" xmlns:xlink="http://www.w3.org/1999/xlink" xmlns:sketch="http://www.bohemiancoding.com/sketch/ns">
    <!-- Generator: Sketch 3.5.2 (25235) - http://www.bohemiancoding.com/sketch -->
    <title>trash</title>
    <desc>Created with Sketch.</desc>
    <defs></defs>
    <g id="UI" stroke="none" stroke-width="1" fill="none" fill-rule="evenodd" sketch:type="MSPage">
        <g id="Desktop-HD-Copy" sketch:type="MSArtboardGroup" transform="translate(-711.000000, -571.000000)" fill="#FFFFFF">
            <path d="M712.14175,576.33475 L712.9675,584.51575 C713.01325,584.8615 714.68275,585.9985 717.1,586 C719.51875,585.9985 721.18825,584.8615 721.23325,584.51575 L722.05975,576.33475 C720.79675,577.04125 718.909,577.375 717.1,577.375 C715.2925,577.375 713.404,577.04125 712.14175,576.33475 L712.14175,576.33475 Z M719.476,572.1325 L718.83175,571.41925 C718.58275,571.0645 718.31275,571 717.787,571 L716.41375,571 C715.88875,571 715.618,571.0645 715.36975,571.41925 L714.7255,572.1325 C712.798,572.46925 711.4,573.3625 711.4,574.02175 L711.4,574.14925 C711.4,575.3095 713.95225,576.25 717.1,576.25 C720.2485,576.25 722.80075,575.3095 722.80075,574.14925 L722.80075,574.02175 C722.80075,573.3625 721.4035,572.46925 719.476,572.1325 L719.476,572.1325 Z M718.6525,574.255 L717.85,573.25 L716.35,573.25 L715.549,574.255 L714.274,574.255 C714.274,574.255 715.6705,572.58925 715.85725,572.3635 C715.99975,572.191 716.14525,572.125 716.33425,572.125 L717.8665,572.125 C718.05625,572.125 718.20175,572.191 718.34425,572.3635 C718.53025,572.58925 719.9275,574.255 719.9275,574.255 L718.6525,574.255 L718.6525,574.255 Z" id="trash" sketch:type="MSShapeGroup"></path>
        </g>
    </g>
</svg>