<?xml version="1.0" encoding="UTF-8" standalone="no"?>
<svg width="16px" height="13px" viewBox="0 0 16 13" version="1.1" xmlns="http://www.w3.org/2000/svg" xmlns:xlink="http://www.w3.org/1999/xlink">
    <!-- Generator: Sketch 3.6 (26304) - http://www.bohemiancoding.com/sketch -->
    <title>Shape</title>
    <desc>Created with Sketch.</desc>
    <defs></defs>
    <g id="UI" stroke="none" stroke-width="1" fill="none" fill-rule="evenodd">
        <g id="Desktop-HD-Copy" transform="translate(-592.000000, -519.000000)" fill="#FFFFFF">
            <g id="ui" transform="translate(208.000000, 179.000000)">
                <g id="content" transform="translate(170.000000, 54.000000)">
                    <g id="Group-+-Barcelona,-Spain-+-29-Dec-2015">
                        <g id="Group" transform="translate(0.000000, 31.000000)">
                            <g id="Group-2" transform="translate(210.000000, 142.000000)">
                                <path d="M12.4,119.4 C12.4,120.504199 11.5041992,121.4 10.4,121.4 C9.295166,121.4 8.4,120.504199 8.4,119.4 C8.4,118.295801 9.295166,117.4 10.4,117.4 C11.5041992,117.4 12.4,118.295801 12.4,119.4 L12.4,119.4 Z M16.8,114.6 L16.8,124.2 C16.8,125.079688 16.0796875,125.8 15.2,125.8 L5.6,125.8 C4.72031248,125.8 4,125.079688 4,124.2 L4,114.6 C4,113.720312 4.72031248,113 5.6,113 L15.2,113 C16.0796875,113 16.8,113.720312 16.8,114.6 L16.8,114.6 Z M14,119.4 C14,117.411572 12.3876953,115.8 10.4,115.8 C8.41157224,115.8 6.8,117.411572 6.8,119.4 C6.8,121.388428 8.41157224,123 10.4,123 C12.3876953,123 14,121.388428 14,119.4 L14,119.4 Z M19.3721191,115.468506 L17.6,116.649902 L17.6,122.249902 L19.3721191,123.431348 C19.6405274,123.610254 20,123.417871 20,123.095312 L20,115.804541 C20,115.481982 19.6405274,115.289551 19.3721191,115.468506 L19.3721191,115.468506 Z" id="Shape"></path>
                            </g>
                        </g>
                    </g>
                </g>
            </g>
        </g>
    </g>
</svg>